<mxfile host="app.diagrams.net" agent="Mozilla/5.0 (Windows NT 10.0; Win64; x64) AppleWebKit/537.36 (KHTML, like Gecko) Chrome/127.0.0.0 Safari/537.36" version="24.7.7">
  <diagram name="Page-1" id="IQpaf1bU2cP2rhMB1gOp">
    <mxGraphModel dx="1114" dy="566" grid="1" gridSize="10" guides="1" tooltips="1" connect="1" arrows="1" fold="1" page="1" pageScale="1" pageWidth="827" pageHeight="1169" math="0" shadow="0">
      <root>
        <mxCell id="0" />
        <mxCell id="1" parent="0" />
        <mxCell id="dvDmtmMPWIaqsXR3ExQg-1" value="DISCIPLINE" style="swimlane;fontStyle=0;childLayout=stackLayout;horizontal=1;startSize=26;fillColor=none;horizontalStack=0;resizeParent=1;resizeParentMax=0;resizeLast=0;collapsible=1;marginBottom=0;whiteSpace=wrap;html=1;" vertex="1" parent="1">
          <mxGeometry x="292" width="140" height="140" as="geometry" />
        </mxCell>
        <mxCell id="dvDmtmMPWIaqsXR3ExQg-2" value="+ code: varchar" style="text;strokeColor=none;fillColor=none;align=left;verticalAlign=top;spacingLeft=4;spacingRight=4;overflow=hidden;rotatable=0;points=[[0,0.5],[1,0.5]];portConstraint=eastwest;whiteSpace=wrap;html=1;" vertex="1" parent="dvDmtmMPWIaqsXR3ExQg-1">
          <mxGeometry y="26" width="140" height="26" as="geometry" />
        </mxCell>
        <mxCell id="dvDmtmMPWIaqsXR3ExQg-3" value="+ libelle: varchar" style="text;strokeColor=none;fillColor=none;align=left;verticalAlign=top;spacingLeft=4;spacingRight=4;overflow=hidden;rotatable=0;points=[[0,0.5],[1,0.5]];portConstraint=eastwest;whiteSpace=wrap;html=1;" vertex="1" parent="dvDmtmMPWIaqsXR3ExQg-1">
          <mxGeometry y="52" width="140" height="26" as="geometry" />
        </mxCell>
        <mxCell id="dvDmtmMPWIaqsXR3ExQg-6" value="" style="line;strokeWidth=1;fillColor=none;align=left;verticalAlign=middle;spacingTop=-1;spacingLeft=3;spacingRight=3;rotatable=0;labelPosition=right;points=[];portConstraint=eastwest;strokeColor=inherit;" vertex="1" parent="dvDmtmMPWIaqsXR3ExQg-1">
          <mxGeometry y="78" width="140" height="8" as="geometry" />
        </mxCell>
        <mxCell id="dvDmtmMPWIaqsXR3ExQg-5" value="+ ajouter(): bool" style="text;strokeColor=none;fillColor=none;align=left;verticalAlign=top;spacingLeft=4;spacingRight=4;overflow=hidden;rotatable=0;points=[[0,0.5],[1,0.5]];portConstraint=eastwest;whiteSpace=wrap;html=1;" vertex="1" parent="dvDmtmMPWIaqsXR3ExQg-1">
          <mxGeometry y="86" width="140" height="26" as="geometry" />
        </mxCell>
        <mxCell id="dvDmtmMPWIaqsXR3ExQg-7" value="+ modifier(): bool" style="text;strokeColor=none;fillColor=none;align=left;verticalAlign=top;spacingLeft=4;spacingRight=4;overflow=hidden;rotatable=0;points=[[0,0.5],[1,0.5]];portConstraint=eastwest;whiteSpace=wrap;html=1;" vertex="1" parent="dvDmtmMPWIaqsXR3ExQg-1">
          <mxGeometry y="112" width="140" height="26" as="geometry" />
        </mxCell>
        <mxCell id="dvDmtmMPWIaqsXR3ExQg-4" value="+ supprimer(): bool" style="text;strokeColor=none;fillColor=none;align=left;verticalAlign=top;spacingLeft=4;spacingRight=4;overflow=hidden;rotatable=0;points=[[0,0.5],[1,0.5]];portConstraint=eastwest;whiteSpace=wrap;html=1;" vertex="1" parent="dvDmtmMPWIaqsXR3ExQg-1">
          <mxGeometry y="138" width="140" height="2" as="geometry" />
        </mxCell>
        <mxCell id="dvDmtmMPWIaqsXR3ExQg-48" style="edgeStyle=orthogonalEdgeStyle;rounded=0;orthogonalLoop=1;jettySize=auto;html=1;" edge="1" parent="1" source="dvDmtmMPWIaqsXR3ExQg-8">
          <mxGeometry relative="1" as="geometry">
            <mxPoint x="80" y="370" as="targetPoint" />
          </mxGeometry>
        </mxCell>
        <mxCell id="dvDmtmMPWIaqsXR3ExQg-24" style="edgeStyle=orthogonalEdgeStyle;rounded=0;orthogonalLoop=1;jettySize=auto;html=1;entryX=-0.014;entryY=0.192;entryDx=0;entryDy=0;entryPerimeter=0;" edge="1" parent="1" source="dvDmtmMPWIaqsXR3ExQg-10" target="dvDmtmMPWIaqsXR3ExQg-18">
          <mxGeometry relative="1" as="geometry" />
        </mxCell>
        <mxCell id="dvDmtmMPWIaqsXR3ExQg-34" value="LIGUE" style="swimlane;fontStyle=0;childLayout=stackLayout;horizontal=1;startSize=26;fillColor=none;horizontalStack=0;resizeParent=1;resizeParentMax=0;resizeLast=0;collapsible=1;marginBottom=0;whiteSpace=wrap;html=1;" vertex="1" parent="1">
          <mxGeometry x="12" y="235" width="140" height="130" as="geometry" />
        </mxCell>
        <mxCell id="dvDmtmMPWIaqsXR3ExQg-35" value="+ code: varchar" style="text;strokeColor=none;fillColor=none;align=left;verticalAlign=top;spacingLeft=4;spacingRight=4;overflow=hidden;rotatable=0;points=[[0,0.5],[1,0.5]];portConstraint=eastwest;whiteSpace=wrap;html=1;" vertex="1" parent="dvDmtmMPWIaqsXR3ExQg-34">
          <mxGeometry y="26" width="140" height="26" as="geometry" />
        </mxCell>
        <mxCell id="dvDmtmMPWIaqsXR3ExQg-36" value="+ libelle: varchar" style="text;strokeColor=none;fillColor=none;align=left;verticalAlign=top;spacingLeft=4;spacingRight=4;overflow=hidden;rotatable=0;points=[[0,0.5],[1,0.5]];portConstraint=eastwest;whiteSpace=wrap;html=1;" vertex="1" parent="dvDmtmMPWIaqsXR3ExQg-34">
          <mxGeometry y="52" width="140" height="26" as="geometry" />
        </mxCell>
        <mxCell id="dvDmtmMPWIaqsXR3ExQg-105" value="+ denom: varchar" style="text;strokeColor=none;fillColor=none;align=left;verticalAlign=top;spacingLeft=4;spacingRight=4;overflow=hidden;rotatable=0;points=[[0,0.5],[1,0.5]];portConstraint=eastwest;whiteSpace=wrap;html=1;" vertex="1" parent="dvDmtmMPWIaqsXR3ExQg-34">
          <mxGeometry y="78" width="140" height="26" as="geometry" />
        </mxCell>
        <mxCell id="dvDmtmMPWIaqsXR3ExQg-37" value="+ siege: varchar" style="text;strokeColor=none;fillColor=none;align=left;verticalAlign=top;spacingLeft=4;spacingRight=4;overflow=hidden;rotatable=0;points=[[0,0.5],[1,0.5]];portConstraint=eastwest;whiteSpace=wrap;html=1;" vertex="1" parent="dvDmtmMPWIaqsXR3ExQg-34">
          <mxGeometry y="104" width="140" height="26" as="geometry" />
        </mxCell>
        <mxCell id="dvDmtmMPWIaqsXR3ExQg-39" value="1" style="text;html=1;align=center;verticalAlign=middle;resizable=0;points=[];autosize=1;strokeColor=none;fillColor=none;" vertex="1" parent="1">
          <mxGeometry x="222" y="292" width="30" height="30" as="geometry" />
        </mxCell>
        <mxCell id="dvDmtmMPWIaqsXR3ExQg-40" value="*" style="text;html=1;align=center;verticalAlign=middle;resizable=0;points=[];autosize=1;strokeColor=none;fillColor=none;" vertex="1" parent="1">
          <mxGeometry x="142" y="273" width="30" height="30" as="geometry" />
        </mxCell>
        <mxCell id="dvDmtmMPWIaqsXR3ExQg-46" value="" style="edgeStyle=orthogonalEdgeStyle;rounded=0;orthogonalLoop=1;jettySize=auto;html=1;entryX=0.021;entryY=0.885;entryDx=0;entryDy=0;entryPerimeter=0;" edge="1" parent="1" source="dvDmtmMPWIaqsXR3ExQg-36" target="dvDmtmMPWIaqsXR3ExQg-70">
          <mxGeometry relative="1" as="geometry" />
        </mxCell>
        <mxCell id="dvDmtmMPWIaqsXR3ExQg-47" value="" style="edgeStyle=orthogonalEdgeStyle;rounded=0;orthogonalLoop=1;jettySize=auto;html=1;entryX=1.021;entryY=-0.154;entryDx=0;entryDy=0;entryPerimeter=0;" edge="1" parent="1" source="dvDmtmMPWIaqsXR3ExQg-44" target="dvDmtmMPWIaqsXR3ExQg-76">
          <mxGeometry relative="1" as="geometry" />
        </mxCell>
        <mxCell id="dvDmtmMPWIaqsXR3ExQg-49" value="1" style="text;html=1;align=center;verticalAlign=middle;resizable=0;points=[];autosize=1;strokeColor=none;fillColor=none;" vertex="1" parent="1">
          <mxGeometry x="55" y="365" width="30" height="30" as="geometry" />
        </mxCell>
        <mxCell id="dvDmtmMPWIaqsXR3ExQg-55" value="FEDER_DISCIPLINE" style="swimlane;fontStyle=0;childLayout=stackLayout;horizontal=1;startSize=26;fillColor=none;horizontalStack=0;resizeParent=1;resizeParentMax=0;resizeLast=0;collapsible=1;marginBottom=0;whiteSpace=wrap;html=1;" vertex="1" parent="1">
          <mxGeometry x="86" y="100" width="140" height="112" as="geometry" />
        </mxCell>
        <mxCell id="dvDmtmMPWIaqsXR3ExQg-56" value="+ code: varchar" style="text;strokeColor=none;fillColor=none;align=left;verticalAlign=top;spacingLeft=4;spacingRight=4;overflow=hidden;rotatable=0;points=[[0,0.5],[1,0.5]];portConstraint=eastwest;whiteSpace=wrap;html=1;" vertex="1" parent="dvDmtmMPWIaqsXR3ExQg-55">
          <mxGeometry y="26" width="140" height="26" as="geometry" />
        </mxCell>
        <mxCell id="dvDmtmMPWIaqsXR3ExQg-57" value="+ description: varchar" style="text;strokeColor=none;fillColor=none;align=left;verticalAlign=top;spacingLeft=4;spacingRight=4;overflow=hidden;rotatable=0;points=[[0,0.5],[1,0.5]];portConstraint=eastwest;whiteSpace=wrap;html=1;" vertex="1" parent="dvDmtmMPWIaqsXR3ExQg-55">
          <mxGeometry y="52" width="140" height="26" as="geometry" />
        </mxCell>
        <mxCell id="dvDmtmMPWIaqsXR3ExQg-69" value="" style="line;strokeWidth=1;fillColor=none;align=left;verticalAlign=middle;spacingTop=-1;spacingLeft=3;spacingRight=3;rotatable=0;labelPosition=right;points=[];portConstraint=eastwest;strokeColor=inherit;" vertex="1" parent="dvDmtmMPWIaqsXR3ExQg-55">
          <mxGeometry y="78" width="140" height="8" as="geometry" />
        </mxCell>
        <mxCell id="dvDmtmMPWIaqsXR3ExQg-58" value="+ associer(): bool" style="text;strokeColor=none;fillColor=none;align=left;verticalAlign=top;spacingLeft=4;spacingRight=4;overflow=hidden;rotatable=0;points=[[0,0.5],[1,0.5]];portConstraint=eastwest;whiteSpace=wrap;html=1;" vertex="1" parent="dvDmtmMPWIaqsXR3ExQg-55">
          <mxGeometry y="86" width="140" height="26" as="geometry" />
        </mxCell>
        <mxCell id="dvDmtmMPWIaqsXR3ExQg-68" value="" style="edgeStyle=orthogonalEdgeStyle;html=1;verticalAlign=bottom;endArrow=open;endSize=8;strokeColor=#ff0000;rounded=0;" edge="1" source="dvDmtmMPWIaqsXR3ExQg-67" parent="1">
          <mxGeometry relative="1" as="geometry">
            <mxPoint x="226" y="180" as="targetPoint" />
            <Array as="points">
              <mxPoint x="337" y="177" />
              <mxPoint x="282" y="177" />
              <mxPoint x="282" y="180" />
            </Array>
          </mxGeometry>
        </mxCell>
        <mxCell id="dvDmtmMPWIaqsXR3ExQg-67" value="" style="shape=line;html=1;strokeWidth=6;strokeColor=#ff0000;rotation=90;" vertex="1" parent="1">
          <mxGeometry x="292" y="180" width="90" height="10" as="geometry" />
        </mxCell>
        <mxCell id="dvDmtmMPWIaqsXR3ExQg-72" value="" style="group" vertex="1" connectable="0" parent="1">
          <mxGeometry x="310" y="569" width="170" height="104" as="geometry" />
        </mxCell>
        <mxCell id="dvDmtmMPWIaqsXR3ExQg-16" value="TYPE_CLUB" style="swimlane;fontStyle=0;childLayout=stackLayout;horizontal=1;startSize=26;fillColor=none;horizontalStack=0;resizeParent=1;resizeParentMax=0;resizeLast=0;collapsible=1;marginBottom=0;whiteSpace=wrap;html=1;" vertex="1" parent="dvDmtmMPWIaqsXR3ExQg-72">
          <mxGeometry x="30" width="140" height="112" as="geometry" />
        </mxCell>
        <mxCell id="dvDmtmMPWIaqsXR3ExQg-18" value="+ code: varchar" style="text;strokeColor=none;fillColor=none;align=left;verticalAlign=top;spacingLeft=4;spacingRight=4;overflow=hidden;rotatable=0;points=[[0,0.5],[1,0.5]];portConstraint=eastwest;whiteSpace=wrap;html=1;" vertex="1" parent="dvDmtmMPWIaqsXR3ExQg-16">
          <mxGeometry y="26" width="140" height="26" as="geometry" />
        </mxCell>
        <mxCell id="dvDmtmMPWIaqsXR3ExQg-17" value="+ libelle: varchar" style="text;strokeColor=none;fillColor=none;align=left;verticalAlign=top;spacingLeft=4;spacingRight=4;overflow=hidden;rotatable=0;points=[[0,0.5],[1,0.5]];portConstraint=eastwest;whiteSpace=wrap;html=1;" vertex="1" parent="dvDmtmMPWIaqsXR3ExQg-16">
          <mxGeometry y="52" width="140" height="26" as="geometry" />
        </mxCell>
        <mxCell id="dvDmtmMPWIaqsXR3ExQg-104" value="" style="line;strokeWidth=1;fillColor=none;align=left;verticalAlign=middle;spacingTop=-1;spacingLeft=3;spacingRight=3;rotatable=0;labelPosition=right;points=[];portConstraint=eastwest;strokeColor=inherit;" vertex="1" parent="dvDmtmMPWIaqsXR3ExQg-16">
          <mxGeometry y="78" width="140" height="8" as="geometry" />
        </mxCell>
        <mxCell id="dvDmtmMPWIaqsXR3ExQg-19" value="+ creer(): bool" style="text;strokeColor=none;fillColor=none;align=left;verticalAlign=top;spacingLeft=4;spacingRight=4;overflow=hidden;rotatable=0;points=[[0,0.5],[1,0.5]];portConstraint=eastwest;whiteSpace=wrap;html=1;" vertex="1" parent="dvDmtmMPWIaqsXR3ExQg-16">
          <mxGeometry y="86" width="140" height="26" as="geometry" />
        </mxCell>
        <mxCell id="dvDmtmMPWIaqsXR3ExQg-29" value="1" style="text;html=1;align=center;verticalAlign=middle;resizable=0;points=[];autosize=1;strokeColor=none;fillColor=none;" vertex="1" parent="dvDmtmMPWIaqsXR3ExQg-72">
          <mxGeometry y="30" width="30" height="30" as="geometry" />
        </mxCell>
        <mxCell id="dvDmtmMPWIaqsXR3ExQg-80" value="TYPE_FEDER" style="swimlane;fontStyle=0;childLayout=stackLayout;horizontal=1;startSize=26;fillColor=none;horizontalStack=0;resizeParent=1;resizeParentMax=0;resizeLast=0;collapsible=1;marginBottom=0;whiteSpace=wrap;html=1;" vertex="1" parent="1">
          <mxGeometry x="450" y="160" width="140" height="112" as="geometry" />
        </mxCell>
        <mxCell id="dvDmtmMPWIaqsXR3ExQg-81" value="+ code: varchar" style="text;strokeColor=none;fillColor=none;align=left;verticalAlign=top;spacingLeft=4;spacingRight=4;overflow=hidden;rotatable=0;points=[[0,0.5],[1,0.5]];portConstraint=eastwest;whiteSpace=wrap;html=1;" vertex="1" parent="dvDmtmMPWIaqsXR3ExQg-80">
          <mxGeometry y="26" width="140" height="26" as="geometry" />
        </mxCell>
        <mxCell id="dvDmtmMPWIaqsXR3ExQg-82" value="+ libelle: varchar" style="text;strokeColor=none;fillColor=none;align=left;verticalAlign=top;spacingLeft=4;spacingRight=4;overflow=hidden;rotatable=0;points=[[0,0.5],[1,0.5]];portConstraint=eastwest;whiteSpace=wrap;html=1;" vertex="1" parent="dvDmtmMPWIaqsXR3ExQg-80">
          <mxGeometry y="52" width="140" height="26" as="geometry" />
        </mxCell>
        <mxCell id="dvDmtmMPWIaqsXR3ExQg-89" value="" style="line;strokeWidth=1;fillColor=none;align=left;verticalAlign=middle;spacingTop=-1;spacingLeft=3;spacingRight=3;rotatable=0;labelPosition=right;points=[];portConstraint=eastwest;strokeColor=inherit;" vertex="1" parent="dvDmtmMPWIaqsXR3ExQg-80">
          <mxGeometry y="78" width="140" height="8" as="geometry" />
        </mxCell>
        <mxCell id="dvDmtmMPWIaqsXR3ExQg-83" value="+ creer(): bool" style="text;strokeColor=none;fillColor=none;align=left;verticalAlign=top;spacingLeft=4;spacingRight=4;overflow=hidden;rotatable=0;points=[[0,0.5],[1,0.5]];portConstraint=eastwest;whiteSpace=wrap;html=1;" vertex="1" parent="dvDmtmMPWIaqsXR3ExQg-80">
          <mxGeometry y="86" width="140" height="26" as="geometry" />
        </mxCell>
        <mxCell id="dvDmtmMPWIaqsXR3ExQg-85" value="" style="endArrow=none;html=1;edgeStyle=orthogonalEdgeStyle;rounded=0;entryX=0.007;entryY=0.885;entryDx=0;entryDy=0;entryPerimeter=0;" edge="1" parent="1" target="dvDmtmMPWIaqsXR3ExQg-81">
          <mxGeometry relative="1" as="geometry">
            <mxPoint x="407" y="358" as="sourcePoint" />
            <mxPoint x="567" y="358" as="targetPoint" />
          </mxGeometry>
        </mxCell>
        <mxCell id="dvDmtmMPWIaqsXR3ExQg-87" value="1" style="edgeLabel;resizable=0;html=1;align=right;verticalAlign=bottom;" connectable="0" vertex="1" parent="dvDmtmMPWIaqsXR3ExQg-85">
          <mxGeometry x="1" relative="1" as="geometry" />
        </mxCell>
        <mxCell id="dvDmtmMPWIaqsXR3ExQg-90" value="" style="group" vertex="1" connectable="0" parent="1">
          <mxGeometry x="470" y="311.5" width="170" height="104" as="geometry" />
        </mxCell>
        <mxCell id="dvDmtmMPWIaqsXR3ExQg-42" value="CONVEN_DOBJECTIF" style="swimlane;fontStyle=0;childLayout=stackLayout;horizontal=1;startSize=26;fillColor=none;horizontalStack=0;resizeParent=1;resizeParentMax=0;resizeLast=0;collapsible=1;marginBottom=0;whiteSpace=wrap;html=1;" vertex="1" parent="dvDmtmMPWIaqsXR3ExQg-90">
          <mxGeometry x="30" width="140" height="112" as="geometry" />
        </mxCell>
        <mxCell id="dvDmtmMPWIaqsXR3ExQg-43" value="+ code: varchar" style="text;strokeColor=none;fillColor=none;align=left;verticalAlign=top;spacingLeft=4;spacingRight=4;overflow=hidden;rotatable=0;points=[[0,0.5],[1,0.5]];portConstraint=eastwest;whiteSpace=wrap;html=1;" vertex="1" parent="dvDmtmMPWIaqsXR3ExQg-42">
          <mxGeometry y="26" width="140" height="26" as="geometry" />
        </mxCell>
        <mxCell id="dvDmtmMPWIaqsXR3ExQg-44" value="+ libelle: varchar" style="text;strokeColor=none;fillColor=none;align=left;verticalAlign=top;spacingLeft=4;spacingRight=4;overflow=hidden;rotatable=0;points=[[0,0.5],[1,0.5]];portConstraint=eastwest;whiteSpace=wrap;html=1;" vertex="1" parent="dvDmtmMPWIaqsXR3ExQg-42">
          <mxGeometry y="52" width="140" height="26" as="geometry" />
        </mxCell>
        <mxCell id="dvDmtmMPWIaqsXR3ExQg-102" value="" style="line;strokeWidth=1;fillColor=none;align=left;verticalAlign=middle;spacingTop=-1;spacingLeft=3;spacingRight=3;rotatable=0;labelPosition=right;points=[];portConstraint=eastwest;strokeColor=inherit;" vertex="1" parent="dvDmtmMPWIaqsXR3ExQg-42">
          <mxGeometry y="78" width="140" height="8" as="geometry" />
        </mxCell>
        <mxCell id="dvDmtmMPWIaqsXR3ExQg-45" value="+ ajouter(): varchar" style="text;strokeColor=none;fillColor=none;align=left;verticalAlign=top;spacingLeft=4;spacingRight=4;overflow=hidden;rotatable=0;points=[[0,0.5],[1,0.5]];portConstraint=eastwest;whiteSpace=wrap;html=1;" vertex="1" parent="dvDmtmMPWIaqsXR3ExQg-42">
          <mxGeometry y="86" width="140" height="26" as="geometry" />
        </mxCell>
        <mxCell id="dvDmtmMPWIaqsXR3ExQg-51" value="1" style="text;html=1;align=center;verticalAlign=middle;resizable=0;points=[];autosize=1;strokeColor=none;fillColor=none;" vertex="1" parent="dvDmtmMPWIaqsXR3ExQg-90">
          <mxGeometry y="37" width="30" height="30" as="geometry" />
        </mxCell>
        <mxCell id="dvDmtmMPWIaqsXR3ExQg-92" value="" style="group" vertex="1" connectable="0" parent="1">
          <mxGeometry x="267" y="212" width="175" height="303" as="geometry" />
        </mxCell>
        <mxCell id="dvDmtmMPWIaqsXR3ExQg-50" value="1" style="text;html=1;align=center;verticalAlign=middle;resizable=0;points=[];autosize=1;strokeColor=none;fillColor=none;" vertex="1" parent="dvDmtmMPWIaqsXR3ExQg-92">
          <mxGeometry x="145" y="136.5" width="30" height="30" as="geometry" />
        </mxCell>
        <mxCell id="dvDmtmMPWIaqsXR3ExQg-91" value="" style="group" vertex="1" connectable="0" parent="dvDmtmMPWIaqsXR3ExQg-92">
          <mxGeometry width="145" height="303" as="geometry" />
        </mxCell>
        <mxCell id="dvDmtmMPWIaqsXR3ExQg-30" value="FEDERATION" style="swimlane;fontStyle=0;childLayout=stackLayout;horizontal=1;startSize=26;fillColor=none;horizontalStack=0;resizeParent=1;resizeParentMax=0;resizeLast=0;collapsible=1;marginBottom=0;whiteSpace=wrap;html=1;" vertex="1" parent="dvDmtmMPWIaqsXR3ExQg-91">
          <mxGeometry y="17" width="140" height="312" as="geometry" />
        </mxCell>
        <mxCell id="dvDmtmMPWIaqsXR3ExQg-31" value="+ sigle: varchar" style="text;strokeColor=none;fillColor=none;align=left;verticalAlign=top;spacingLeft=4;spacingRight=4;overflow=hidden;rotatable=0;points=[[0,0.5],[1,0.5]];portConstraint=eastwest;whiteSpace=wrap;html=1;" vertex="1" parent="dvDmtmMPWIaqsXR3ExQg-30">
          <mxGeometry y="26" width="140" height="26" as="geometry" />
        </mxCell>
        <mxCell id="dvDmtmMPWIaqsXR3ExQg-32" value="+ denom: varchar" style="text;strokeColor=none;fillColor=none;align=left;verticalAlign=top;spacingLeft=4;spacingRight=4;overflow=hidden;rotatable=0;points=[[0,0.5],[1,0.5]];portConstraint=eastwest;whiteSpace=wrap;html=1;" vertex="1" parent="dvDmtmMPWIaqsXR3ExQg-30">
          <mxGeometry y="52" width="140" height="26" as="geometry" />
        </mxCell>
        <mxCell id="dvDmtmMPWIaqsXR3ExQg-70" value="+ siegesociale: varchar" style="text;strokeColor=none;fillColor=none;align=left;verticalAlign=top;spacingLeft=4;spacingRight=4;overflow=hidden;rotatable=0;points=[[0,0.5],[1,0.5]];portConstraint=eastwest;whiteSpace=wrap;html=1;" vertex="1" parent="dvDmtmMPWIaqsXR3ExQg-30">
          <mxGeometry y="78" width="140" height="26" as="geometry" />
        </mxCell>
        <mxCell id="dvDmtmMPWIaqsXR3ExQg-73" value="+ organisation: text" style="text;strokeColor=none;fillColor=none;align=left;verticalAlign=top;spacingLeft=4;spacingRight=4;overflow=hidden;rotatable=0;points=[[0,0.5],[1,0.5]];portConstraint=eastwest;whiteSpace=wrap;html=1;" vertex="1" parent="dvDmtmMPWIaqsXR3ExQg-30">
          <mxGeometry y="104" width="140" height="26" as="geometry" />
        </mxCell>
        <mxCell id="dvDmtmMPWIaqsXR3ExQg-77" value="+ contactpresi: varchar" style="text;strokeColor=none;fillColor=none;align=left;verticalAlign=top;spacingLeft=4;spacingRight=4;overflow=hidden;rotatable=0;points=[[0,0.5],[1,0.5]];portConstraint=eastwest;whiteSpace=wrap;html=1;" vertex="1" parent="dvDmtmMPWIaqsXR3ExQg-30">
          <mxGeometry y="130" width="140" height="26" as="geometry" />
        </mxCell>
        <mxCell id="dvDmtmMPWIaqsXR3ExQg-76" value="+ president: varchar" style="text;strokeColor=none;fillColor=none;align=left;verticalAlign=top;spacingLeft=4;spacingRight=4;overflow=hidden;rotatable=0;points=[[0,0.5],[1,0.5]];portConstraint=eastwest;whiteSpace=wrap;html=1;" vertex="1" parent="dvDmtmMPWIaqsXR3ExQg-30">
          <mxGeometry y="156" width="140" height="26" as="geometry" />
        </mxCell>
        <mxCell id="dvDmtmMPWIaqsXR3ExQg-74" value="+ adresse: varchar" style="text;strokeColor=none;fillColor=none;align=left;verticalAlign=top;spacingLeft=4;spacingRight=4;overflow=hidden;rotatable=0;points=[[0,0.5],[1,0.5]];portConstraint=eastwest;whiteSpace=wrap;html=1;" vertex="1" parent="dvDmtmMPWIaqsXR3ExQg-30">
          <mxGeometry y="182" width="140" height="26" as="geometry" />
        </mxCell>
        <mxCell id="dvDmtmMPWIaqsXR3ExQg-78" value="+ contactfeder: varchar" style="text;strokeColor=none;fillColor=none;align=left;verticalAlign=top;spacingLeft=4;spacingRight=4;overflow=hidden;rotatable=0;points=[[0,0.5],[1,0.5]];portConstraint=eastwest;whiteSpace=wrap;html=1;" vertex="1" parent="dvDmtmMPWIaqsXR3ExQg-30">
          <mxGeometry y="208" width="140" height="26" as="geometry" />
        </mxCell>
        <mxCell id="dvDmtmMPWIaqsXR3ExQg-79" value="+ email: varchar" style="text;strokeColor=none;fillColor=none;align=left;verticalAlign=top;spacingLeft=4;spacingRight=4;overflow=hidden;rotatable=0;points=[[0,0.5],[1,0.5]];portConstraint=eastwest;whiteSpace=wrap;html=1;" vertex="1" parent="dvDmtmMPWIaqsXR3ExQg-30">
          <mxGeometry y="234" width="140" height="26" as="geometry" />
        </mxCell>
        <mxCell id="dvDmtmMPWIaqsXR3ExQg-101" value="+ siteweb: varchar" style="text;strokeColor=none;fillColor=none;align=left;verticalAlign=top;spacingLeft=4;spacingRight=4;overflow=hidden;rotatable=0;points=[[0,0.5],[1,0.5]];portConstraint=eastwest;whiteSpace=wrap;html=1;" vertex="1" parent="dvDmtmMPWIaqsXR3ExQg-30">
          <mxGeometry y="260" width="140" height="26" as="geometry" />
        </mxCell>
        <mxCell id="dvDmtmMPWIaqsXR3ExQg-33" value="+ membre_cno: bool" style="text;strokeColor=none;fillColor=none;align=left;verticalAlign=top;spacingLeft=4;spacingRight=4;overflow=hidden;rotatable=0;points=[[0,0.5],[1,0.5]];portConstraint=eastwest;whiteSpace=wrap;html=1;" vertex="1" parent="dvDmtmMPWIaqsXR3ExQg-30">
          <mxGeometry y="286" width="140" height="26" as="geometry" />
        </mxCell>
        <mxCell id="dvDmtmMPWIaqsXR3ExQg-88" value="*" style="text;html=1;align=center;verticalAlign=middle;resizable=0;points=[];autosize=1;strokeColor=none;fillColor=none;" vertex="1" parent="dvDmtmMPWIaqsXR3ExQg-91">
          <mxGeometry x="115" width="30" height="30" as="geometry" />
        </mxCell>
        <mxCell id="dvDmtmMPWIaqsXR3ExQg-95" style="edgeStyle=none;rounded=0;orthogonalLoop=1;jettySize=auto;html=1;entryX=0.25;entryY=0;entryDx=0;entryDy=0;" edge="1" parent="1" source="dvDmtmMPWIaqsXR3ExQg-8" target="dvDmtmMPWIaqsXR3ExQg-20">
          <mxGeometry relative="1" as="geometry" />
        </mxCell>
        <mxCell id="dvDmtmMPWIaqsXR3ExQg-97" value="" style="group" vertex="1" connectable="0" parent="1">
          <mxGeometry x="70" y="569" width="172" height="136" as="geometry" />
        </mxCell>
        <mxCell id="dvDmtmMPWIaqsXR3ExQg-75" value="" style="group" vertex="1" connectable="0" parent="dvDmtmMPWIaqsXR3ExQg-97">
          <mxGeometry y="32" width="172" height="104" as="geometry" />
        </mxCell>
        <mxCell id="dvDmtmMPWIaqsXR3ExQg-20" value="STATUT_JURI" style="swimlane;fontStyle=0;childLayout=stackLayout;horizontal=1;startSize=26;fillColor=none;horizontalStack=0;resizeParent=1;resizeParentMax=0;resizeLast=0;collapsible=1;marginBottom=0;whiteSpace=wrap;html=1;" vertex="1" parent="dvDmtmMPWIaqsXR3ExQg-75">
          <mxGeometry x="32" width="140" height="112" as="geometry" />
        </mxCell>
        <mxCell id="dvDmtmMPWIaqsXR3ExQg-21" value="+ code: varchar" style="text;strokeColor=none;fillColor=none;align=left;verticalAlign=top;spacingLeft=4;spacingRight=4;overflow=hidden;rotatable=0;points=[[0,0.5],[1,0.5]];portConstraint=eastwest;whiteSpace=wrap;html=1;" vertex="1" parent="dvDmtmMPWIaqsXR3ExQg-20">
          <mxGeometry y="26" width="140" height="26" as="geometry" />
        </mxCell>
        <mxCell id="dvDmtmMPWIaqsXR3ExQg-22" value="+ libelle: varchar" style="text;strokeColor=none;fillColor=none;align=left;verticalAlign=top;spacingLeft=4;spacingRight=4;overflow=hidden;rotatable=0;points=[[0,0.5],[1,0.5]];portConstraint=eastwest;whiteSpace=wrap;html=1;" vertex="1" parent="dvDmtmMPWIaqsXR3ExQg-20">
          <mxGeometry y="52" width="140" height="26" as="geometry" />
        </mxCell>
        <mxCell id="dvDmtmMPWIaqsXR3ExQg-106" value="" style="line;strokeWidth=1;fillColor=none;align=left;verticalAlign=middle;spacingTop=-1;spacingLeft=3;spacingRight=3;rotatable=0;labelPosition=right;points=[];portConstraint=eastwest;strokeColor=inherit;" vertex="1" parent="dvDmtmMPWIaqsXR3ExQg-20">
          <mxGeometry y="78" width="140" height="8" as="geometry" />
        </mxCell>
        <mxCell id="dvDmtmMPWIaqsXR3ExQg-23" value="+ creer(): bool" style="text;strokeColor=none;fillColor=none;align=left;verticalAlign=top;spacingLeft=4;spacingRight=4;overflow=hidden;rotatable=0;points=[[0,0.5],[1,0.5]];portConstraint=eastwest;whiteSpace=wrap;html=1;" vertex="1" parent="dvDmtmMPWIaqsXR3ExQg-20">
          <mxGeometry y="86" width="140" height="26" as="geometry" />
        </mxCell>
        <mxCell id="dvDmtmMPWIaqsXR3ExQg-96" value="1" style="text;html=1;align=center;verticalAlign=middle;resizable=0;points=[];autosize=1;strokeColor=none;fillColor=none;" vertex="1" parent="dvDmtmMPWIaqsXR3ExQg-97">
          <mxGeometry x="55" width="30" height="30" as="geometry" />
        </mxCell>
        <mxCell id="dvDmtmMPWIaqsXR3ExQg-98" style="edgeStyle=none;rounded=0;orthogonalLoop=1;jettySize=auto;html=1;entryX=0.429;entryY=-0.01;entryDx=0;entryDy=0;entryPerimeter=0;exitX=0.286;exitY=0.885;exitDx=0;exitDy=0;exitPerimeter=0;" edge="1" parent="1" source="dvDmtmMPWIaqsXR3ExQg-11" target="dvDmtmMPWIaqsXR3ExQg-12">
          <mxGeometry relative="1" as="geometry" />
        </mxCell>
        <mxCell id="dvDmtmMPWIaqsXR3ExQg-99" value="" style="group" vertex="1" connectable="0" parent="1">
          <mxGeometry y="720" width="140" height="134" as="geometry" />
        </mxCell>
        <mxCell id="dvDmtmMPWIaqsXR3ExQg-12" value="LOCALITE" style="swimlane;fontStyle=0;childLayout=stackLayout;horizontal=1;startSize=26;fillColor=none;horizontalStack=0;resizeParent=1;resizeParentMax=0;resizeLast=0;collapsible=1;marginBottom=0;whiteSpace=wrap;html=1;" vertex="1" parent="dvDmtmMPWIaqsXR3ExQg-99">
          <mxGeometry y="30" width="140" height="104" as="geometry" />
        </mxCell>
        <mxCell id="dvDmtmMPWIaqsXR3ExQg-13" value="+ code: type" style="text;strokeColor=none;fillColor=none;align=left;verticalAlign=top;spacingLeft=4;spacingRight=4;overflow=hidden;rotatable=0;points=[[0,0.5],[1,0.5]];portConstraint=eastwest;whiteSpace=wrap;html=1;" vertex="1" parent="dvDmtmMPWIaqsXR3ExQg-12">
          <mxGeometry y="26" width="140" height="26" as="geometry" />
        </mxCell>
        <mxCell id="dvDmtmMPWIaqsXR3ExQg-14" value="+ libelle: type" style="text;strokeColor=none;fillColor=none;align=left;verticalAlign=top;spacingLeft=4;spacingRight=4;overflow=hidden;rotatable=0;points=[[0,0.5],[1,0.5]];portConstraint=eastwest;whiteSpace=wrap;html=1;" vertex="1" parent="dvDmtmMPWIaqsXR3ExQg-12">
          <mxGeometry y="52" width="140" height="26" as="geometry" />
        </mxCell>
        <mxCell id="dvDmtmMPWIaqsXR3ExQg-15" value="+ ...: type" style="text;strokeColor=none;fillColor=none;align=left;verticalAlign=top;spacingLeft=4;spacingRight=4;overflow=hidden;rotatable=0;points=[[0,0.5],[1,0.5]];portConstraint=eastwest;whiteSpace=wrap;html=1;" vertex="1" parent="dvDmtmMPWIaqsXR3ExQg-12">
          <mxGeometry y="78" width="140" height="26" as="geometry" />
        </mxCell>
        <mxCell id="dvDmtmMPWIaqsXR3ExQg-28" value="1" style="text;html=1;align=center;verticalAlign=middle;resizable=0;points=[];autosize=1;strokeColor=none;fillColor=none;" vertex="1" parent="dvDmtmMPWIaqsXR3ExQg-99">
          <mxGeometry x="20" width="30" height="30" as="geometry" />
        </mxCell>
        <mxCell id="dvDmtmMPWIaqsXR3ExQg-100" value="" style="group" vertex="1" connectable="0" parent="1">
          <mxGeometry x="12" y="443" width="163" height="134" as="geometry" />
        </mxCell>
        <mxCell id="dvDmtmMPWIaqsXR3ExQg-27" value="*" style="text;html=1;align=center;verticalAlign=middle;resizable=0;points=[];autosize=1;strokeColor=none;fillColor=none;" vertex="1" parent="dvDmtmMPWIaqsXR3ExQg-100">
          <mxGeometry y="104" width="30" height="30" as="geometry" />
        </mxCell>
        <mxCell id="dvDmtmMPWIaqsXR3ExQg-94" value="" style="group" vertex="1" connectable="0" parent="dvDmtmMPWIaqsXR3ExQg-100">
          <mxGeometry width="163" height="104" as="geometry" />
        </mxCell>
        <mxCell id="dvDmtmMPWIaqsXR3ExQg-8" value="CLUB" style="swimlane;fontStyle=0;childLayout=stackLayout;horizontal=1;startSize=26;fillColor=none;horizontalStack=0;resizeParent=1;resizeParentMax=0;resizeLast=0;collapsible=1;marginBottom=0;whiteSpace=wrap;html=1;" vertex="1" parent="dvDmtmMPWIaqsXR3ExQg-94">
          <mxGeometry width="140" height="104" as="geometry" />
        </mxCell>
        <mxCell id="dvDmtmMPWIaqsXR3ExQg-9" value="+ code: type" style="text;strokeColor=none;fillColor=none;align=left;verticalAlign=top;spacingLeft=4;spacingRight=4;overflow=hidden;rotatable=0;points=[[0,0.5],[1,0.5]];portConstraint=eastwest;whiteSpace=wrap;html=1;" vertex="1" parent="dvDmtmMPWIaqsXR3ExQg-8">
          <mxGeometry y="26" width="140" height="26" as="geometry" />
        </mxCell>
        <mxCell id="dvDmtmMPWIaqsXR3ExQg-10" value="+ libelle: type" style="text;strokeColor=none;fillColor=none;align=left;verticalAlign=top;spacingLeft=4;spacingRight=4;overflow=hidden;rotatable=0;points=[[0,0.5],[1,0.5]];portConstraint=eastwest;whiteSpace=wrap;html=1;" vertex="1" parent="dvDmtmMPWIaqsXR3ExQg-8">
          <mxGeometry y="52" width="140" height="26" as="geometry" />
        </mxCell>
        <mxCell id="dvDmtmMPWIaqsXR3ExQg-11" value="+ field: type" style="text;strokeColor=none;fillColor=none;align=left;verticalAlign=top;spacingLeft=4;spacingRight=4;overflow=hidden;rotatable=0;points=[[0,0.5],[1,0.5]];portConstraint=eastwest;whiteSpace=wrap;html=1;" vertex="1" parent="dvDmtmMPWIaqsXR3ExQg-8">
          <mxGeometry y="78" width="140" height="26" as="geometry" />
        </mxCell>
        <mxCell id="dvDmtmMPWIaqsXR3ExQg-93" value="*" style="text;html=1;align=center;verticalAlign=middle;resizable=0;points=[];autosize=1;strokeColor=none;fillColor=none;" vertex="1" parent="dvDmtmMPWIaqsXR3ExQg-94">
          <mxGeometry x="133" y="42" width="30" height="30" as="geometry" />
        </mxCell>
      </root>
    </mxGraphModel>
  </diagram>
</mxfile>
